<?xml version="1.0" encoding="utf-8"?>
<!-- Generator: Adobe Illustrator 16.0.2, SVG Export Plug-In . SVG Version: 6.00 Build 0)  -->
<!DOCTYPE svg PUBLIC "-//W3C//DTD SVG 1.1//EN" "http://www.w3.org/Graphics/SVG/1.1/DTD/svg11.dtd">
<svg version="1.1" id="Layer_1" xmlns="http://www.w3.org/2000/svg" xmlns:xlink="http://www.w3.org/1999/xlink" x="0px" y="0px"
	 width="491.237px" height="315.321px" viewBox="0 0 491.237 315.321" enable-background="new 0 0 491.237 315.321"
	 xml:space="preserve">
<path fill="#6C7293" d="M392.233,249.93c-6.237-0.075-12.477-0.023-18.714-0.024c-5.327-0.001-10.654,0-16.55,0
	c2.164-4.782,3.219-8.865,3.215-13.269c-0.05-63.182,0.008-126.362-0.063-189.544c-0.017-15.14-11.262-26.296-26.492-26.318
	c-52.145-0.074-104.289-0.032-156.434-0.019c-4.722,0.001-9.204,1.112-13.249,3.566c-9.119,5.534-13.726,13.658-13.171,24.36
	c0.196,3.788-0.952,5.064-4.773,4.81c-4.776-0.319-9.593-0.133-14.39-0.06c-15.493,0.237-26.869,11.664-26.878,27.177
	c-0.04,62.542-0.011,125.083-0.036,187.625c-0.001,3.399,0.227,6.845,1.695,9.831c2.19,4.453,0.014,4.609-3.497,4.554
	c-8.155-0.128-16.316-0.118-24.471,0.028c-3.973,0.072-6.361,2.463-6.316,6.373c0.044,3.838,2.248,6.216,6.349,6.315
	c1.598,0.04,3.198,0.027,4.798,0.027c51.824,0.001,103.649,0.029,155.474-0.064c3.298-0.007,5.633,0.934,7.985,3.257
	c5.869,5.8,11.042,12.388,18.223,16.767c2.56,0,5.12,0,7.68,0c6.985-4.054,11.129-9.336,8.373-18.019
	c-0.979-3.084,1.852-1.866,2.99-1.878c10.075-0.112,20.154-0.042,30.23-0.093c3.959-0.021,6.332-1.98,6.555-6.062
	c0.219-3.995-2.035-6.271-6.414-6.693c-0.889-0.086-1.903,0.34-2.85-0.798c2.012-4.235,3.426-8.89,3.042-13.695
	c-0.366-4.593,1.396-5.522,5.661-5.489c23.992,0.19,47.986,0.112,71.979,0.065c4.829-0.01,7.24-2.244,7.255-6.343
	C399.452,252.205,397.038,249.987,392.233,249.93z M285.825,282.792c-13.276,1.452-23.497-2.252-31.376-13.086
	c-2.416-3.322-5.805-5.938-8.751-8.873c-2.598-2.593-5.7-4.461-9.391-3.975c-4.175,0.548-6.005-2.352-8.239-4.713
	c-1.775-1.876,0.287-3.19,1.073-4.59c9.583-17.05,9.358-33.892-1.576-50.168c-10.398-15.478-29.624-22.632-48.03-18.395
	c-18.016,4.146-32.069,19.238-34.649,37.414c-2.713,19.115,4.03,34.475,19.878,45.107c15.733,10.557,32.367,10.525,48.9,1.225
	c3.669-2.064,9.731,0.379,9.62,4.622c-0.155,5.915,1.732,10.497,6.365,14.263c-0.283,0.316-0.565,0.634-0.849,0.949
	c-10.217,0-20.434,0-30.65,0c-21.437,0-42.874,0.011-64.311-0.005c-10.963-0.007-15.824-4.844-15.826-15.764
	c-0.009-61.591-0.008-123.182,0-184.773c0.001-10.91,4.469-15.334,15.414-15.334c51.033-0.003,102.065-0.004,153.098,0.001
	c10.157,0.001,14.872,4.752,14.874,15.022c0.008,61.751,0.008,123.502,0.001,185.253
	C301.401,277.443,296.198,281.656,285.825,282.792z M222.698,223.876c-0.066,18.003-14.613,32.235-32.898,32.188
	c-18.301-0.05-32.461-14.252-32.436-32.532c0.025-17.998,14.571-32.632,32.556-32.756
	C207.846,190.651,222.765,205.718,222.698,223.876z M347.355,142.058c0.001,30.395,0.007,60.791-0.003,91.186
	c-0.004,11.646-4.988,16.634-16.595,16.659c-3.68,0.009-7.38-0.242-11.033,0.068c-3.908,0.332-5.235-0.869-5.174-4.98
	c0.237-15.675,0.096-31.354,0.096-47.031c0-38.234,0.008-76.468-0.003-114.703c-0.006-19.052-10.717-29.834-29.629-29.839
	c-38.554-0.009-77.108-0.085-115.662,0.107c-4.551,0.023-5.662-1.362-5.472-5.643c0.392-8.832,5.205-13.831,14.197-13.835
	c51.512-0.025,103.024-0.023,154.536-0.006c9.521,0.002,14.716,5.241,14.727,14.912C347.377,79.987,347.354,111.022,347.355,142.058
	z"/>
<path fill="#6C7293" d="M21.731,118.683c9.66-0.599,17.605-9.332,17.604-19.347c-0.002-10.009-7.961-18.754-17.609-19.348
	C10.839,79.319,4.959,83.517,0,95.5c0,2.56,0,5.119,0,7.679C4.954,115.159,10.841,119.359,21.731,118.683z M9.757,99.017
	c0.223-5.209,4.883-9.471,10.211-9.336c5.251,0.131,9.811,4.875,9.589,9.974c-0.226,5.194-4.919,9.48-10.226,9.339
	C14.079,108.855,9.538,104.124,9.757,99.017z"/>
<path fill="#6C7293" d="M425.954,40.655c-10.995-0.045-19.66,8.29-19.835,19.079c-0.178,10.944,9.066,20.216,20.054,20.113
	c10.5-0.098,19.251-9.128,19.234-19.846C445.39,49.072,436.973,40.701,425.954,40.655z M425.876,69.716
	c-5.516-0.025-10.191-4.708-9.971-9.985c0.216-5.197,4.831-9.45,10.139-9.347c5.239,0.102,9.743,4.666,9.674,9.803
	C435.646,65.555,431.323,69.74,425.876,69.716z"/>
<path fill="#6C7293" d="M51.39,282.598c-12.452-0.052-24.905-0.057-37.357,0.004c-4.732,0.022-7.245,2.291-7.349,6.308
	c-0.104,4.044,2.362,6.358,7.132,6.425c6.225,0.086,12.452,0.021,18.678,0.022c6.227,0.002,12.453,0.05,18.679-0.014
	c5.169-0.054,7.628-2.236,7.555-6.51C58.657,284.749,56.258,282.617,51.39,282.598z"/>
<path fill="#6C7293" d="M486.396,187.686c-3.781,0.506-5.195-0.949-4.749-4.721c0.28-2.367-0.344-4.481-3.188-4.965
	c-3.57,0.164-3.593,2.745-3.33,5.149c0.382,3.515-0.759,4.992-4.446,4.555c-2.358-0.279-5.202-0.39-5.216,3.152
	c-0.014,3.411,2.71,3.627,5.138,3.37c3.58-0.376,4.938,0.89,4.529,4.51c-0.245,2.177-0.369,4.926,2.782,5.097
	c3.188,0.172,4.026-2.308,3.723-4.899c-0.454-3.887,1.148-5.116,4.823-4.688c2.437,0.283,4.802-0.489,4.776-3.334
	C491.212,188.055,488.818,187.362,486.396,187.686z"/>
<path fill="#6C7293" d="M37.845,213.716c-2.382-0.342-4.873,0.305-4.963,3.133c-0.102,3.218,2.542,3.736,5.094,3.408
	c3.629-0.468,4.879,0.95,4.489,4.515c-0.275,2.505,0.182,5.094,3.482,5.098c3.212,0.004,3.338-2.619,3.035-4.848
	c-0.587-4.308,1.489-5.209,5.188-4.76c2.2,0.268,4.204-0.159,4.537-3.011c-0.117-3.326-2.506-3.812-5.009-3.522
	c-3.854,0.443-5.126-1.091-4.707-4.805c0.256-2.265,0.081-4.867-3.086-4.828c-2.853,0.034-3.685,2.275-3.451,4.727
	C42.787,212.341,41.89,214.296,37.845,213.716z"/>
<path fill="#FEFEFE" d="M29.558,99.654c0.222-5.1-4.338-9.843-9.589-9.974c-5.328-0.134-9.988,4.127-10.211,9.336
	c-0.219,5.107,4.322,9.838,9.575,9.977C24.639,109.134,29.332,104.849,29.558,99.654z"/>
<path fill="#FEFEFE" d="M426.044,50.383c-5.308-0.103-9.923,4.15-10.139,9.347c-0.221,5.277,4.455,9.96,9.971,9.985
	c5.447,0.024,9.77-4.161,9.842-9.53C435.787,55.049,431.283,50.485,426.044,50.383z"/>
<path fill="#6C7293" d="M253.759,118.806c-33.71-0.072-67.421-0.062-101.131-0.012c-5.435,0.008-8.759,2.878-8.536,6.942
	c0.216,3.927,3.364,6.241,8.588,6.245c16.616,0.012,33.231,0.004,49.847,0.003c17.254,0,34.509-0.045,51.763,0.035
	c3.836,0.017,6.612-1.292,7.604-5.111C263.055,122.443,259.547,118.818,253.759,118.806z"/>
<path fill="#6C7293" d="M152.182,99.33c11.508,0.032,23.016,0.01,34.524,0.01c11.508,0,23.017,0.022,34.524-0.011
	c4.751-0.014,7.907-2.533,8.097-6.31c0.189-3.761-2.893-6.849-7.622-6.871c-23.335-0.107-46.672-0.107-70.007,0
	c-4.714,0.021-7.81,3.127-7.616,6.88C144.278,96.812,147.425,99.316,152.182,99.33z"/>
<path fill="#6C7293" d="M195.302,151.889c-14.354-0.045-28.709-0.041-43.063-0.006c-5.338,0.012-8.276,2.418-8.164,6.501
	c0.104,3.748,3.24,6.244,8.045,6.271c7.177,0.042,14.354,0.011,21.531,0.011c7.177-0.001,14.354,0.033,21.532-0.013
	c4.855-0.031,7.804-2.46,7.915-6.371C203.207,154.42,200.247,151.904,195.302,151.889z"/>
<path fill="#6C7293" d="M62.396,9.686c-3.781,0.506-5.195-0.949-4.749-4.721c0.28-2.367-0.344-4.481-3.188-4.965
	c-3.57,0.164-3.593,2.745-3.33,5.149c0.382,3.515-0.759,4.992-4.446,4.555c-2.358-0.279-5.202-0.39-5.216,3.152
	c-0.014,3.411,2.71,3.627,5.138,3.37c3.58-0.376,4.938,0.89,4.529,4.51c-0.245,2.177-0.369,4.926,2.782,5.097
	c3.188,0.172,4.026-2.308,3.723-4.899c-0.454-3.887,1.148-5.116,4.823-4.688c2.437,0.283,4.802-0.489,4.776-3.334
	C67.212,10.055,64.818,9.362,62.396,9.686z"/>
</svg>
