<?xml version="1.0" encoding="utf-8"?>
<!-- Generator: Adobe Illustrator 16.0.2, SVG Export Plug-In . SVG Version: 6.00 Build 0)  -->
<!DOCTYPE svg PUBLIC "-//W3C//DTD SVG 1.1//EN" "http://www.w3.org/Graphics/SVG/1.1/DTD/svg11.dtd">
<svg version="1.1" id="Capa_1" xmlns="http://www.w3.org/2000/svg" xmlns:xlink="http://www.w3.org/1999/xlink" x="0px" y="0px"
	 width="606px" height="524.47px" viewBox="3 41.766 606 524.47" enable-background="new 3 41.766 606 524.47" xml:space="preserve"
	>
<g>
	<path fill="#A1A1A1" d="M204.47,198.943c4.624,0,8.972-1.792,12.261-5.049l71.869-87.115v299.215c0,9.616,7.806,17.439,17.4,17.439
		c9.595,0,17.4-7.823,17.4-17.439V106.006l72.521,87.887c3.289,3.258,7.639,5.05,12.263,5.05c4.668,0,9.058-1.827,12.357-5.145
		c6.818-6.854,6.818-18.005,0-24.858l-0.188-0.207L319.629,46.629c-3.396-3.357-8.147-5.093-13.128-4.839l-0.154,0.008l-0.153-0.008
		c-4.991-0.251-9.733,1.482-13.13,4.84L192.21,168.841l-0.099,0.099c-6.819,6.854-6.819,18.005,0,24.858
		C195.412,197.116,199.801,198.943,204.47,198.943z"/>
	<path fill="#A1A1A1" d="M591.6,368.234c-9.594,0-17.398,7.806-17.398,17.399v145.8H37.8v-145.8c0-9.594-7.806-17.399-17.4-17.399
		S3,376.04,3,385.635v163.2c0,9.595,7.806,17.4,17.4,17.4h571.2c9.595,0,17.4-7.806,17.4-17.4v-163.2
		C609,376.04,601.194,368.234,591.6,368.234z"/>
</g>
</svg>
