<?xml version="1.0" encoding="utf-8"?>
<!-- Generator: Adobe Illustrator 16.0.2, SVG Export Plug-In . SVG Version: 6.00 Build 0)  -->
<!DOCTYPE svg PUBLIC "-//W3C//DTD SVG 1.1//EN" "http://www.w3.org/Graphics/SVG/1.1/DTD/svg11.dtd">
<svg version="1.1" id="Capa_1" xmlns="http://www.w3.org/2000/svg" xmlns:xlink="http://www.w3.org/1999/xlink" x="0px" y="0px"
	 width="47.807px" height="28.091px" viewBox="-1309.893 -47.355 47.807 28.091"
	 enable-background="new -1309.893 -47.355 47.807 28.091" xml:space="preserve">
<path fill-rule="evenodd" clip-rule="evenodd" fill="#8689A8" d="M-1285.894-47.333c6.157,0.001,12.314,0.039,18.472-0.02
	c2.165-0.021,3.981,0.448,4.965,2.556c1.067,2.287-0.361,3.75-1.8,5.212c-5.952,6.049-11.93,12.073-17.817,18.184
	c-2.578,2.677-4.969,2.95-7.65,0.185c-6.023-6.212-12.104-12.367-18.174-18.534c-1.469-1.492-2.683-3.039-1.546-5.271
	c1.074-2.109,2.964-2.354,5.08-2.332C-1298.208-47.293-1292.051-47.333-1285.894-47.333z"/>
</svg>
